<svg version="1.1" id="Layer_1" xmlns="http://www.w3.org/2000/svg" xmlns:xlink="http://www.w3.org/1999/xlink" x="0px" y="0px"
	 width="100%" viewBox="0 0 496 496" enable-background="new 0 0 496 496" xml:space="preserve">
<path fill="#000000" opacity="1.000000" stroke="none" 
	d="
M497.000000,273.531342 
	C490.709076,269.953308 484.505737,265.762360 478.112701,261.883942 
	C442.501160,240.279617 403.561462,227.596420 363.052246,219.159302 
	C361.422516,218.819870 359.806244,218.389923 358.162231,218.148956 
	C345.630035,216.312195 343.052979,210.974869 341.932587,198.138779 
	C341.657471,194.987061 341.796692,194.974915 338.926910,192.049347 
	C336.948029,197.398987 335.212372,202.462433 333.211670,207.418900 
	C329.548676,216.493423 326.767822,225.856918 323.765167,235.151688 
	C323.186523,236.942810 321.454712,237.913651 319.842651,238.851318 
	C302.936829,248.684845 284.595154,253.541733 265.161682,254.296173 
	C242.732437,255.166885 220.632797,252.962326 199.082626,246.356461 
	C197.969055,246.015121 196.875137,245.605133 195.752701,245.297882 
	C183.859375,242.042252 176.381546,235.258484 172.329453,222.795303 
	C165.992737,203.305267 161.626602,183.345215 155.969559,163.713196 
	C155.119980,160.764786 155.391281,157.861984 158.751923,156.618271 
	C166.179352,153.869492 170.710587,148.084076 174.872177,141.828079 
	C175.317627,141.158478 175.955185,140.527893 177.846100,141.032074 
	C176.180054,145.692749 174.689651,150.388779 172.793808,154.915009 
	C171.997757,156.815521 172.170624,157.709503 173.285355,159.608994 
	C178.289627,168.136139 184.787521,169.084000 192.933456,164.656738 
	C195.195694,163.427185 197.399750,163.904999 199.532471,165.281128 
	C201.630096,166.634598 203.866043,167.771973 205.985931,169.092987 
	C209.610550,171.351685 212.763229,172.892303 217.307541,169.987885 
	C222.165161,166.883224 227.595200,168.653809 231.496674,172.549332 
	C236.022766,177.068542 240.232941,177.909225 245.527191,174.041962 
	C249.708710,170.987503 254.241135,171.148346 258.632477,173.926208 
	C263.136414,176.775269 267.368958,176.406296 271.561859,173.135727 
	C276.051910,169.633362 280.869019,169.797501 285.532013,172.719788 
	C290.506836,175.837509 293.625397,176.451035 297.181519,170.739288 
	C299.342499,167.268372 302.901428,167.587662 306.086212,169.297989 
	C310.694855,171.772980 313.604065,170.391800 315.640076,165.884369 
	C317.147125,162.547958 318.714417,159.562119 323.429260,162.132446 
	C325.586548,163.308533 326.954987,161.538925 326.519318,159.245483 
	C324.987762,151.183426 321.853149,143.729233 317.540894,136.766235 
	C315.673309,133.750641 313.121124,133.691315 310.178162,135.090286 
	C303.251648,138.382904 296.376923,141.739151 290.218231,146.403687 
	C286.632141,149.119766 282.911560,151.698868 278.542328,153.026978 
	C276.766846,153.566666 274.871033,153.693649 273.525574,151.936081 
	C272.276428,150.304276 273.128204,148.764420 273.865051,147.266907 
	C275.919281,143.092056 279.217316,139.776276 282.175934,135.871460 
	C279.648346,134.556595 278.038544,136.067612 276.479156,136.991486 
	C271.321014,140.047424 266.209808,143.181824 261.550232,147.000656 
	C259.362946,148.793304 257.119354,150.572968 254.691376,152.001892 
	C251.804626,153.700851 248.530273,157.129837 245.308258,154.290527 
	C241.729965,151.137253 244.337219,146.990250 246.209137,143.784409 
	C251.560898,134.618912 259.462738,127.578415 266.776489,120.063805 
	C268.488190,118.305138 270.328186,116.642822 271.552246,114.089172 
	C268.572571,112.522926 266.484100,114.381821 264.459503,115.390396 
	C247.175064,124.000938 232.196350,135.931564 217.525192,148.284470 
	C214.452957,150.871231 211.367050,153.365158 207.417694,154.553314 
	C203.864532,155.622269 202.328171,154.332077 202.523026,150.710648 
	C202.691193,147.585007 204.078262,144.981476 205.885147,142.520676 
	C213.117279,132.671310 221.772827,124.130096 230.474716,115.625259 
	C231.719727,114.408455 233.606888,113.561432 233.463913,111.255173 
	C231.510330,109.370735 230.140533,111.276451 228.723633,112.078255 
	C216.987045,118.719810 207.381180,127.948013 198.047867,137.497665 
	C196.301086,139.284943 194.630692,141.148926 192.843964,142.894501 
	C191.179840,144.520309 189.329895,146.637604 186.942139,144.324341 
	C184.755463,142.205917 186.646744,140.243881 188.092773,138.719284 
	C195.428055,130.985474 202.673523,123.148354 211.092575,116.536491 
	C213.451263,114.684082 215.688400,112.612808 218.251099,111.098541 
	C222.605927,108.525330 222.866730,106.400734 219.401093,102.326866 
	C213.564240,95.465668 209.315903,87.484657 208.371552,78.269615 
	C207.301575,67.828644 213.488312,59.012932 222.814590,57.447651 
	C227.837357,56.604649 232.461243,57.969955 236.431351,61.017731 
	C240.075012,63.814930 243.005981,62.882843 245.455368,59.683449 
	C248.988297,55.068741 252.946106,51.206482 258.849854,49.852558 
	C259.560242,49.689640 260.319855,49.034584 260.734039,48.397797 
	C264.198853,43.070789 261.495270,32.627739 255.876129,29.450199 
	C254.861526,28.876463 253.779404,28.418631 252.782822,27.817192 
	C250.062943,26.175743 249.946747,24.171659 252.406586,22.299997 
	C256.044495,19.531954 259.907745,17.356270 264.834381,18.445454 
	C272.586731,20.159363 279.899719,20.495434 287.546112,16.445147 
	C294.927551,12.535199 302.797852,13.634762 309.251465,19.812407 
	C311.544464,22.007385 314.364471,23.032808 317.443359,22.980257 
	C329.177002,22.779970 340.496338,26.330448 351.889832,27.306124 
	C371.749268,29.006775 386.506195,39.508869 401.192444,50.547104 
	C443.714325,82.506737 473.274384,123.938087 489.751526,174.579437 
	C492.214294,182.148651 494.259918,189.853561 496.749268,197.747849 
	C497.000000,223.020889 497.000000,248.041794 497.000000,273.531342 
M263.700958,132.188156 
	C262.343689,134.115021 260.174469,135.584335 259.917725,138.201111 
	C262.160004,139.277390 263.385742,137.809357 264.662048,136.928162 
	C273.838684,130.592285 283.609741,125.286911 293.452820,120.093948 
	C298.800140,117.272820 298.918243,115.028137 293.990601,111.654045 
	C292.758484,110.810356 291.473450,110.042465 290.198181,109.263588 
	C288.420593,108.177917 286.997803,108.257965 285.393707,109.936905 
	C278.400330,117.256561 271.261566,124.437370 263.700958,132.188156 
M245.975433,111.214874 
	C237.189819,117.676460 229.081955,124.820419 223.038544,134.169037 
	C234.027847,126.680984 244.721481,118.880943 257.381683,111.455582 
	C252.756042,110.003502 249.741943,110.073357 245.975433,111.214874 
M303.597656,131.088318 
	C304.983093,130.198868 306.488190,129.447876 307.721283,128.382156 
	C309.032501,127.248947 308.959076,125.731033 307.932526,124.370071 
	C306.994202,123.126053 305.600067,121.862534 304.183167,122.952652 
	C300.262543,125.969093 296.740112,129.418350 294.173279,134.739426 
	C298.133453,134.243866 300.377533,132.418640 303.597656,131.088318 
z"/>
<path fill="#000000" opacity="1.000000" stroke="none" 
	d="
M138.650055,358.817932 
	C144.429886,361.308502 147.602158,365.191589 147.311554,371.323425 
	C146.969147,378.548126 143.010696,383.507935 136.832672,386.586609 
	C129.464005,390.258545 121.979637,389.324677 114.650002,386.088379 
	C108.510193,383.377380 107.585815,383.800110 105.343895,390.176239 
	C103.374710,395.776672 102.884865,401.557068 103.340210,407.418793 
	C104.032372,416.329163 112.341080,420.678009 120.042824,416.140656 
	C125.453171,412.953278 128.574188,407.825958 131.098663,402.301849 
	C132.278381,399.720306 133.707932,397.758820 136.927429,397.677704 
	C141.613907,397.559723 143.344650,399.544067 142.114975,404.051331 
	C141.064026,407.903412 139.854919,411.712952 138.839844,415.573944 
	C138.352524,417.427582 137.483963,419.384674 139.005539,421.272705 
	C141.440292,421.649902 142.674042,419.873993 143.955399,418.460052 
	C148.363647,413.595520 151.653198,408.101593 153.765686,401.807312 
	C157.957306,389.318176 169.715149,381.763214 180.491898,384.323944 
	C190.362152,386.669250 193.472549,395.913788 187.012573,403.819916 
	C183.009552,408.719055 177.654953,410.417908 171.493546,410.395996 
	C169.366028,410.388428 166.285812,409.339691 165.688782,412.633057 
	C165.104462,415.856110 167.850082,417.327423 170.252319,418.440277 
	C175.439880,420.843536 180.461563,419.542389 185.027710,416.782684 
	C191.409195,412.925842 195.547958,407.528687 196.906998,399.822266 
	C198.729507,389.487488 201.490662,379.352203 206.730164,370.093506 
	C208.630219,366.735931 210.845673,363.635468 213.855392,361.158600 
	C219.394562,356.600159 222.384659,356.083191 227.308258,358.871216 
	C231.822845,361.427643 234.178482,366.868164 233.048416,372.707794 
	C231.241837,382.043152 226.659805,389.817566 219.306366,395.855774 
	C217.128281,397.644287 214.695648,399.145905 212.283127,400.621094 
	C207.044647,403.824158 204.833115,410.585785 207.641815,416.015656 
	C209.434982,419.482269 212.419678,420.478241 216.079727,418.786530 
	C222.860962,415.652313 226.675140,409.903564 229.635834,403.391937 
	C234.012726,393.765656 240.948776,386.962646 251.395691,384.350494 
	C258.304871,382.622925 264.999268,383.683350 271.151398,387.236237 
	C275.267242,389.613129 275.219360,392.498444 271.324585,395.333557 
	C267.657776,398.002777 262.834778,411.959839 264.234558,416.048737 
	C265.175995,418.798828 267.122009,418.559845 268.978912,417.202545 
	C272.119263,414.907013 274.388672,411.840179 276.245483,408.420593 
	C278.548279,404.179596 280.729828,399.835480 283.441315,395.861786 
	C288.343719,388.677307 295.254791,384.588959 304.081909,384.737244 
	C307.982361,384.802734 309.710236,383.332611 310.718567,379.726471 
	C312.330109,373.963074 314.304108,368.294891 316.286285,362.643097 
	C317.962067,357.864929 323.058655,356.362335 327.174744,359.235077 
	C329.609894,360.934570 328.546082,363.031464 327.904083,365.066589 
	C324.550018,375.698730 321.012726,386.276672 317.875702,396.972168 
	C316.337433,402.216736 315.445038,407.659607 314.436401,413.045685 
	C314.102814,414.827026 314.086456,416.933990 316.024445,417.944427 
	C318.150116,419.052734 319.430420,417.177551 320.671234,415.962524 
	C324.057617,412.646484 326.216156,408.507812 328.149200,404.236603 
	C331.614990,396.578583 336.673340,390.425232 344.332764,386.529083 
	C352.200226,382.527130 360.103882,382.879913 367.989075,386.079468 
	C370.321838,387.026031 373.447113,388.180603 373.076263,391.465546 
	C372.710175,394.708282 370.009857,395.963684 366.840302,396.228424 
	C365.581238,402.089050 364.329346,407.907043 363.082642,413.726105 
	C362.761169,415.226654 362.474976,416.798401 363.977722,417.821838 
	C365.759735,419.035461 367.176758,417.769348 368.457672,416.774536 
	C371.671600,414.278625 373.899353,411.021179 375.770874,407.408905 
	C379.909637,399.420502 384.069244,391.414703 390.287109,384.757050 
	C393.081360,381.765198 396.206818,379.336334 400.665771,379.669769 
	C403.911041,379.912415 405.978180,381.633423 405.026123,384.843536 
	C404.090576,387.997864 404.716309,390.825928 405.578888,393.625885 
	C407.670837,400.416565 409.365997,407.298431 410.444519,414.485016 
	C415.715820,414.224640 417.387878,410.348297 419.674957,407.224884 
	C420.754425,405.750702 421.223022,402.805695 423.908630,404.328247 
	C426.629578,405.870758 424.886627,408.153381 423.904633,409.976562 
	C420.753967,415.825958 416.248932,420.074310 409.442474,421.150055 
	C407.335693,421.483002 405.762421,422.459015 404.179962,423.739166 
	C400.028229,427.097870 395.137512,427.873047 390.024567,427.216431 
	C384.994934,426.570526 380.702972,421.589264 380.760864,416.897369 
	C380.792542,414.328827 382.087341,412.879852 384.526703,412.360626 
	C386.913361,411.852539 387.826355,413.201935 388.266327,415.271698 
	C388.792297,417.745941 390.376190,419.023743 392.921844,418.812805 
	C395.660004,418.585876 394.515076,416.033417 395.330475,414.725830 
	C399.317566,408.331787 396.734528,402.289673 394.926300,396.142181 
	C394.451447,394.527740 393.989960,392.931641 392.048309,391.949860 
	C388.576385,393.832275 387.168427,397.505951 385.375641,400.746582 
	C381.749329,407.301514 378.595764,414.132080 373.409576,419.698456 
	C370.402008,422.926422 367.016357,425.447266 362.567047,426.428101 
	C358.943787,427.226868 355.934357,426.725189 353.889618,423.367950 
	C352.435028,420.979797 350.821045,420.807159 348.537659,422.409943 
	C337.943787,429.846191 334.761597,429.494049 325.537445,420.047119 
	C322.950500,420.826935 321.316589,423.099457 319.082489,424.469788 
	C313.192688,428.082458 309.061432,427.769806 304.476074,422.951660 
	C302.781219,421.170776 301.432526,420.878174 299.340820,422.310120 
	C288.295837,429.871063 285.574951,429.566345 275.922302,419.924805 
	C273.201996,420.398102 271.588654,422.739716 269.402985,424.146179 
	C263.627533,427.862640 258.942383,427.561981 254.470612,422.816742 
	C252.698257,420.935944 251.342453,421.008667 249.363052,422.488220 
	C240.362442,429.215912 237.084824,429.235229 228.794861,422.513916 
	C226.374527,420.551544 224.606873,421.337006 222.659729,423.034821 
	C218.957199,426.263306 214.589447,427.414062 209.722656,427.379669 
	C204.408615,427.342102 200.352066,425.412140 197.892227,420.572479 
	C197.283447,419.374695 196.680191,418.194824 194.791550,417.476471 
	C188.863068,422.779755 182.332108,427.241150 173.535385,427.460358 
	C164.808426,427.677826 157.941330,424.845306 153.221069,417.355713 
	C149.423050,419.223145 148.403625,423.318085 145.400955,424.872894 
	C136.724686,429.365448 132.405762,436.715210 129.290436,445.648621 
	C126.795067,452.804321 120.677658,455.755096 112.953270,455.402740 
	C104.026199,454.995575 99.921783,447.904541 104.426910,440.131927 
	C107.752403,434.394501 113.582100,432.103638 119.338478,429.852600 
	C122.476288,428.625580 125.080757,427.228180 124.427010,423.213898 
	C122.358185,422.210876 121.134720,423.841217 119.719322,424.434052 
	C106.340134,430.037964 92.578064,421.490753 91.652611,407.042480 
	C90.984291,396.608704 92.864662,386.779022 98.384865,377.849030 
	C100.191307,374.926758 100.158005,372.460602 98.649101,369.487244 
	C97.460518,367.145111 96.334518,364.493500 96.234116,361.938019 
	C96.057106,357.432617 93.920372,355.937805 89.767357,355.701202 
	C80.911171,355.196594 72.898239,352.123047 65.476952,346.745789 
	C60.647465,350.557739 56.141171,354.665070 49.673038,355.665283 
	C45.539215,356.304535 41.665283,355.886688 37.864384,354.781769 
	C30.485622,352.636810 26.951521,347.135345 27.713802,339.701294 
	C28.428505,332.731232 34.066555,327.307068 41.413548,326.727631 
	C45.753895,326.385345 50.017105,326.712341 54.185886,328.326416 
	C60.144550,330.633545 60.948627,330.130127 62.929192,323.718506 
	C65.876038,314.178741 68.742752,304.613953 71.735634,295.088776 
	C73.488167,289.511108 75.827454,284.169952 78.861534,279.156799 
	C80.339226,276.715271 82.054451,274.422241 84.521271,272.918671 
	C87.132721,271.327026 89.757904,271.918121 91.923660,273.784210 
	C94.397903,275.916138 92.193893,277.713531 91.040161,279.372681 
	C85.909073,286.751526 83.356270,295.243317 80.666977,303.631958 
	C77.417328,313.768494 75.076057,324.191772 71.281830,334.159882 
	C70.301369,336.735748 70.551552,338.611542 73.046951,340.069183 
	C88.857681,349.304840 104.004585,348.686371 112.214935,329.754852 
	C118.058380,316.281006 119.610603,302.202911 115.692413,287.799286 
	C109.746246,265.940521 81.299919,257.808411 64.583206,273.184814 
	C56.880352,280.270050 55.139393,288.180878 59.360485,298.035278 
	C60.665653,301.082306 60.638458,303.509460 57.639633,305.362305 
	C54.629768,307.221985 52.334488,306.038239 50.205593,303.665863 
	C43.288990,295.958221 42.727489,282.977600 48.966377,273.403290 
	C57.187141,260.787567 76.201447,253.472382 92.143349,255.967545 
	C121.348534,260.538666 132.962921,283.586914 129.959259,310.971313 
	C129.102051,318.786469 127.224335,326.383392 123.832016,333.526031 
	C119.484833,342.679169 113.398796,350.157257 103.669662,354.038757 
	C102.590874,354.469116 101.451439,354.831787 100.957581,356.055420 
	C100.928772,356.219116 100.829857,356.411102 100.881996,356.543640 
	C104.916206,366.795624 104.913704,366.788910 114.619186,361.543854 
	C122.122025,357.489166 129.985901,356.371033 138.650055,358.817932 
M341.815948,402.379150 
	C339.837311,406.071350 338.236145,409.870361 338.341888,414.181152 
	C338.384979,415.937408 338.744324,417.553040 340.507782,418.330719 
	C342.319153,419.129517 343.754822,418.150299 344.976868,416.967621 
	C347.875092,414.162811 349.778687,410.665253 351.867676,407.253601 
	C354.640564,402.725128 354.554077,396.748322 359.640564,393.341125 
	C352.354279,391.096222 347.410583,393.597260 341.815948,402.379150 
M242.811890,402.378387 
	C240.783890,406.042694 239.248413,409.846558 239.311127,414.141052 
	C239.336838,415.903290 239.690948,417.478973 241.440933,418.288910 
	C243.251251,419.126770 244.663315,418.161102 245.913361,417.017761 
	C248.134338,414.986450 249.771866,412.490204 251.380844,409.966675 
	C254.796661,404.609406 255.741943,398.072357 260.076324,393.034363 
	C252.784363,391.367920 248.326050,393.771088 242.811890,402.378387 
M304.879486,393.615051 
	C303.782959,392.988251 302.621033,393.124054 301.490326,393.417877 
	C294.783905,395.160583 286.909271,408.361908 288.506378,415.147430 
	C289.354553,418.751007 292.510468,419.926544 295.225464,417.116486 
	C301.355255,410.772156 305.311035,403.276581 304.879486,393.615051 
M118.879944,378.925446 
	C124.329483,380.508209 129.409454,380.136871 133.447754,375.688446 
	C135.134933,373.829926 136.541641,371.551239 134.763779,368.982849 
	C133.179993,366.694855 131.093430,365.353973 128.027267,365.907745 
	C123.822578,366.667114 120.165192,368.481659 117.055298,371.301361 
	C113.650002,374.388824 113.977402,376.086670 118.879944,378.925446 
M44.862942,346.646881 
	C45.691505,346.641449 46.550205,346.776703 47.343544,346.606812 
	C51.279911,345.763672 55.695660,343.554932 55.516747,339.897827 
	C55.333736,336.157074 50.358032,335.585968 46.710926,335.231445 
	C42.987392,334.869537 39.903282,336.208557 38.968521,339.948639 
	C37.989567,343.865570 40.891151,345.513397 44.862942,346.646881 
M220.885910,368.602386 
	C215.862885,372.913391 211.436874,384.951752 213.366608,389.054260 
	C218.022095,385.459473 222.838837,376.292542 222.830505,371.071381 
	C222.828827,370.019073 222.660828,369.081299 220.885910,368.602386 
M169.164856,396.640930 
	C168.124969,398.551147 165.501740,400.426697 167.416245,402.656982 
	C169.155090,404.682617 171.738617,403.469360 173.784866,402.308960 
	C176.440979,400.802704 178.686264,398.907776 178.745071,395.480682 
	C178.765961,394.262909 178.519333,393.024872 177.231354,392.653473 
	C173.779755,391.658234 171.729141,393.989349 169.164856,396.640930 
M115.142670,440.749481 
	C113.987473,442.339355 112.511398,443.854034 113.830833,446.061768 
	C118.990120,444.547150 120.500839,442.559937 119.930382,438.085754 
	C118.059792,437.942078 116.869629,439.146362 115.142670,440.749481 
z"/>
<path fill="#000000" opacity="1.000000" stroke="none" 
	d="
M452.612000,322.296967 
	C450.847168,316.507599 449.189880,311.102905 447.483429,305.713837 
	C447.033691,304.293579 446.589417,302.700134 444.785217,302.480103 
	C443.186401,302.285065 442.521301,303.663544 441.759430,304.725555 
	C437.370636,310.842773 433.827271,317.432678 430.847687,324.336334 
	C427.591705,331.880402 423.364380,338.850983 418.075104,345.125061 
	C414.253448,349.658203 409.702484,353.238586 403.639465,354.349182 
	C397.455811,355.481842 394.252655,353.829102 391.735931,348.089203 
	C391.133148,346.714478 390.734528,345.278564 389.087372,344.618408 
	C386.070770,345.704315 384.679016,348.591156 382.471405,350.529236 
	C376.504852,355.767517 368.840363,357.196320 362.571198,354.134491 
	C360.067413,352.911591 358.365997,350.988556 356.946106,348.649170 
	C354.359802,344.388062 352.911407,344.160461 349.384857,347.743195 
	C346.054565,351.126495 342.504303,354.075378 337.816101,355.261017 
	C329.887390,357.266144 326.233582,355.135284 321.494690,345.846527 
	C319.127838,345.196381 317.979889,347.191650 316.451691,348.310394 
	C307.358185,354.967773 297.226532,357.321808 286.226074,355.109009 
	C280.095734,353.875854 275.379242,350.303680 272.101776,344.829895 
	C268.784058,339.288849 267.980682,339.307495 264.121521,344.257721 
	C261.758911,347.288239 259.196838,350.164673 256.091156,352.437866 
	C248.539398,357.965485 241.282181,356.940247 236.027573,349.498169 
	C233.559906,346.003265 231.679825,348.299011 230.001663,349.946594 
	C224.144806,355.696747 217.466766,357.486176 209.407700,355.603546 
	C203.842331,354.303467 200.200607,351.300262 197.976913,346.222046 
	C195.715897,341.058624 194.201981,340.704620 190.174683,344.715851 
	C181.331100,353.524078 170.740952,357.525482 158.406555,355.642212 
	C142.490479,353.212067 135.054474,342.476288 137.602173,326.450378 
	C140.369003,309.046051 151.993805,296.525055 167.888794,294.336334 
	C174.820221,293.381897 181.364120,294.839081 185.519058,301.114838 
	C189.728043,307.472229 188.250397,313.874481 184.353149,319.836670 
	C178.383194,328.969757 169.273361,331.269623 159.129715,330.816162 
	C156.145859,330.682770 152.740997,329.404175 151.034225,332.665436 
	C149.239304,336.095093 151.483047,339.251587 153.683899,341.675720 
	C158.272156,346.729401 164.337860,347.798981 170.664276,346.141724 
	C185.405075,342.280182 194.428741,332.611694 197.713669,317.825165 
	C200.896912,303.496216 204.464386,289.322876 211.094482,276.120422 
	C214.023468,270.287964 217.224182,264.597870 222.525635,260.535309 
	C226.962036,257.135590 231.924957,255.098145 237.394867,257.726929 
	C242.852005,260.349579 244.503159,265.300049 244.361404,271.045776 
	C243.962067,287.231415 235.326157,299.221649 224.286774,309.833069 
	C220.955536,313.035156 216.962341,315.599792 213.071136,318.149292 
	C210.654465,319.732697 209.069870,321.667603 208.674759,324.449738 
	C207.970367,329.409515 207.564575,334.428528 208.404739,339.384949 
	C209.414429,345.341339 214.208679,347.968872 219.976227,346.015106 
	C225.279816,344.218475 228.901840,340.290009 232.215729,336.076263 
	C238.513214,328.068787 242.049698,318.774628 244.566925,309.016510 
	C245.397446,305.797028 246.604172,302.669434 247.338669,299.431702 
	C248.234848,295.481201 250.844543,294.459808 254.392609,294.787292 
	C259.156403,295.227051 260.457581,297.055969 259.152802,301.721558 
	C255.836502,313.579681 252.406235,325.405945 249.088120,337.263580 
	C248.251831,340.252136 246.626511,344.100647 249.802338,345.934265 
	C252.795883,347.662628 255.227615,344.173645 257.218048,342.171906 
	C262.927216,336.430206 267.035217,329.600983 269.705322,321.932556 
	C273.382233,311.372559 279.153351,302.420593 289.442963,297.204376 
	C296.231995,293.762726 303.343872,292.767639 310.688232,295.558838 
	C315.335571,297.325012 318.115692,300.530884 318.306244,305.614410 
	C318.508942,311.021729 316.478851,315.395264 311.746063,318.203888 
	C309.095734,319.776703 306.071533,319.780518 303.711975,317.905212 
	C301.008270,315.756439 303.783539,313.740967 304.645844,311.812622 
	C305.710114,309.432739 306.735809,306.920074 304.764038,304.807251 
	C302.487244,302.367584 299.521881,303.026520 296.910156,304.431427 
	C288.467560,308.972687 284.556580,316.744293 282.434479,325.589417 
	C281.749207,328.445465 280.928741,331.348389 281.617157,334.450806 
	C284.086487,345.578888 294.929718,349.878448 307.048981,344.325562 
	C318.445068,339.104004 324.859741,329.611389 328.669739,318.161255 
	C330.715302,312.013672 332.187286,305.674866 333.906403,299.419128 
	C334.826538,296.070679 336.833771,294.393982 340.468292,294.709869 
	C345.306671,295.130402 346.888367,297.221893 345.630615,301.990723 
	C342.449249,314.052795 339.237000,326.106750 336.033600,338.163025 
	C335.862793,338.805786 335.536469,339.431915 335.494141,340.079620 
	C335.355743,342.196106 334.663239,344.593597 336.997192,345.960449 
	C339.155243,347.224304 340.871399,345.613953 342.390930,344.440613 
	C349.448822,338.990570 354.001160,331.670074 357.389954,323.580811 
	C360.391846,316.415100 364.379608,309.915314 370.131287,304.667877 
	C380.897583,294.845520 393.216217,291.144135 407.462067,295.766449 
	C410.170227,296.645172 412.726227,297.876434 414.964111,299.659943 
	C416.787018,301.112671 419.004028,302.545441 417.233490,305.371338 
	C415.624268,307.939697 413.471405,309.721619 410.178131,308.659363 
	C408.931458,308.257233 407.779144,307.518097 406.637329,306.842163 
	C397.369202,301.355560 388.930267,302.170349 381.123962,309.611023 
	C373.367889,317.003845 368.593842,325.952393 368.023834,336.820343 
	C367.847809,340.176544 367.869690,343.823578 371.622314,345.408600 
	C375.115540,346.884064 377.764801,344.538788 380.021667,342.353699 
	C388.142670,334.490845 392.750641,324.578278 396.138000,313.989197 
	C396.881561,311.664856 397.078308,308.832581 399.982147,308.000397 
	C402.473877,307.286346 405.046448,307.511749 407.103943,309.226318 
	C409.110626,310.898621 408.356598,313.177338 407.841461,315.272705 
	C406.213928,321.892273 404.508850,328.493011 402.919128,335.121490 
	C402.535004,336.723083 402.372620,338.398956 402.301880,340.048950 
	C402.223450,341.878662 402.185944,343.831604 404.052551,344.950684 
	C406.207581,346.242737 407.929993,344.893097 409.496094,343.697205 
	C415.877106,338.824615 420.207367,332.368408 423.509338,325.153839 
	C428.229156,314.841309 433.072510,304.596741 440.616516,295.945801 
	C443.469299,292.674408 446.387665,289.501678 450.871338,288.324066 
	C453.355927,287.671509 455.574127,287.973114 457.400818,289.639557 
	C459.228424,291.306793 459.223724,293.461212 458.105530,295.592590 
	C456.610870,298.441528 458.011841,301.233002 458.562378,303.875824 
	C461.015717,315.651855 467.895599,326.353485 466.187897,339.303375 
	C473.298767,338.699036 476.653351,334.339966 479.797333,329.856445 
	C481.316162,327.690491 482.378723,325.204315 483.645294,322.861725 
	C484.441223,321.389557 485.500275,320.436401 487.261688,321.286194 
	C488.779724,322.018524 489.367981,323.251007 489.158569,324.971863 
	C488.130493,333.419586 476.224213,345.290924 467.307800,346.181976 
	C464.205536,346.492004 462.201874,347.795776 460.006622,349.750824 
	C454.086121,355.023468 447.186493,357.479065 439.267395,355.158905 
	C431.777191,352.964386 427.453400,344.921082 429.311737,337.381561 
	C429.984192,334.653290 431.135986,332.717926 434.242737,332.802917 
	C437.843475,332.901398 437.257904,335.624298 437.343536,337.892944 
	C437.470154,341.248749 438.520081,344.027161 441.690125,345.756927 
	C444.491638,347.285583 446.844055,346.203217 449.158722,344.754913 
	C449.840790,344.328125 450.951294,343.428101 450.838379,343.060242 
	C448.668091,335.989990 457.760101,329.961517 452.612000,322.296967 
M156.297302,312.864014 
	C155.342239,314.610596 154.159927,316.274933 153.490204,318.124847 
	C152.669922,320.390625 153.641724,321.939697 156.080994,322.567017 
	C163.718185,324.531097 173.026886,319.391663 175.239410,311.835052 
	C175.951630,309.402527 176.274994,306.869720 174.073105,304.882446 
	C171.972961,302.987000 169.546753,303.046722 167.051300,303.908081 
	C162.598938,305.444885 159.607819,308.801819 156.297302,312.864014 
M216.320404,304.560516 
	C224.051102,297.982635 228.353821,289.253143 231.653931,279.930908 
	C232.588028,277.292297 233.748764,274.663788 233.616623,271.752686 
	C233.553314,270.357788 233.191452,269.090698 231.763855,268.498230 
	C230.343063,267.908569 229.098175,268.439484 228.164856,269.479248 
	C227.173172,270.584015 226.211349,271.771606 225.508102,273.070160 
	C220.658951,282.023834 217.484467,291.650513 214.393326,301.299042 
	C213.987259,302.566498 213.145859,304.381989 216.320404,304.560516 
z"/>
<path fill="#000000" opacity="1.000000" stroke="none" 
	d="
M251.146713,280.419312 
	C253.373871,277.250916 255.363586,274.376129 257.450104,271.573425 
	C259.219299,269.196960 261.569214,268.252747 264.478027,269.219879 
	C267.678223,270.283905 268.983826,272.091980 266.540863,275.119598 
	C263.926910,278.359100 261.362579,281.648865 258.574677,284.734253 
	C256.683807,286.826874 254.022049,286.934021 251.642426,285.836578 
	C249.153580,284.688782 249.885239,282.628540 251.146713,280.419312 
z"/>
<path fill="#000000" opacity="1.000000" stroke="none" 
	d="
M117.463837,191.558716 
	C114.407509,188.670074 114.000381,185.674316 116.856087,183.074829 
	C120.056770,180.161285 123.942398,180.186630 127.500099,182.462753 
	C130.463608,184.358749 131.751816,187.225021 129.995544,190.653397 
	C128.111084,194.331924 124.844269,194.492020 121.376686,193.494827 
	C120.117249,193.132660 118.973969,192.366562 117.463837,191.558716 
z"/>
<path fill="#000000" opacity="1.000000" stroke="none" 
	d="
M341.457214,273.296143 
	C345.113220,271.640045 348.319092,271.620300 350.807343,274.554810 
	C352.668884,276.750214 352.818420,279.412537 351.450104,281.985657 
	C349.828705,285.034729 347.266022,286.512817 343.752197,286.330444 
	C340.926910,286.183807 339.017639,284.674194 338.160522,282.168213 
	C336.955597,278.645325 338.100677,275.694611 341.457214,273.296143 
z"/>
<path fill="#000000" opacity="1.000000" stroke="none" 
	d="
M82.320541,71.307419 
	C77.704994,76.113220 71.864311,78.785309 67.284966,83.132828 
	C74.174492,74.357567 81.182869,65.761803 90.897491,59.511719 
	C90.705582,63.734982 88.934296,66.120499 82.320541,71.307419 
z"/>
</svg>